<svg width="100" height="100" viewBox="0 0 100 100" fill="none" xmlns="http://www.w3.org/2000/svg">
<path fill-rule="evenodd" clip-rule="evenodd" d="M50 0C77.6142 0 100 22.3858 100 50C100 77.6142 77.6142 100 50 100C22.3858 100 0 77.6142 0 50C0 22.3858 22.3858 0 50 0ZM74.837 25.8065C72.5551 25.8572 69.0054 27.0754 52.1201 34.1301C46.1873 36.617 34.3721 41.7435 16.6244 49.4582C13.7849 50.6255 12.2639 51.7422 12.1117 52.8588C11.8585 54.9902 14.9006 55.6502 18.7035 56.8682C21.8473 57.8833 26.0051 59.0501 28.1856 59.1009C30.1632 59.1517 32.3443 58.3399 34.7782 56.665C51.3568 45.4503 59.8755 39.7659 60.4358 39.6626C60.8415 39.5611 61.3488 39.4597 61.7038 39.7642C62.0586 40.0688 62.0585 40.6775 62.0078 40.8298C61.7027 42.0993 46.1362 56.3099 45.2235 57.2234C41.7754 60.7761 37.8712 62.9587 43.9051 66.9174C49.128 70.3687 52.1201 72.5509 57.4951 76.0529C60.8925 78.2861 63.5798 80.9251 67.1292 80.6207C68.7518 80.4685 70.4254 78.9462 71.2875 74.3786C73.3158 63.6187 77.2713 40.2208 78.1841 30.5774C78.2855 29.7654 78.1839 28.6995 78.0825 28.1919C77.9811 27.6844 77.8286 27.0244 77.2201 26.5168C76.4595 25.9079 75.344 25.8065 74.837 25.8065Z" fill="url(#paint0_linear_2809_899)"/>
<path d="M74.837 25.8065C72.5551 25.8572 69.0054 27.0754 52.1201 34.1301C46.1873 36.617 34.3721 41.7435 16.6244 49.4582C13.7849 50.6255 12.2639 51.7422 12.1117 52.8588C11.8585 54.9902 14.9006 55.6502 18.7035 56.8682C21.8473 57.8833 26.0051 59.0501 28.1856 59.1009C30.1632 59.1517 32.3443 58.3399 34.7782 56.665C51.3568 45.4503 59.8755 39.7659 60.4358 39.6626C60.8415 39.5611 61.3488 39.4597 61.7038 39.7642C62.0586 40.0688 62.0585 40.6775 62.0078 40.8298C61.7027 42.0993 46.1362 56.3099 45.2235 57.2234C41.7754 60.7761 37.8712 62.9587 43.9051 66.9174C49.128 70.3687 52.1201 72.5509 57.4951 76.0529C60.8925 78.2861 63.5798 80.9251 67.1292 80.6207C68.7518 80.4685 70.4254 78.9462 71.2875 74.3786C73.3158 63.6187 77.2713 40.2208 78.1841 30.5774C78.2855 29.7654 78.1839 28.6995 78.0825 28.1919C77.9811 27.6844 77.8286 27.0244 77.2201 26.5168C76.4595 25.9079 75.344 25.8065 74.837 25.8065Z" fill="white"/>
<defs>
<linearGradient id="paint0_linear_2809_899" x1="50" y1="0" x2="50" y2="100" gradientUnits="userSpaceOnUse">
<stop stop-color="#2AABEE"/>
<stop offset="1" stop-color="#229ED9"/>
</linearGradient>
</defs>
</svg>
